# xmcd
#
# Track frame offsets: 
#        150
#        13693
#        41128
#        58683
#        81498
#        106660
#        131228
#        150255
#        175220
#        195003
#
# Disc length: 2931 seconds
#
# Revision: 0
# Processed by: cddbd v1.5.2PL0 Copyright (c) Steve Scherf et al.
# Submitted via: ExactAudioCopy v1.0b3
#
DISCID=770b710a
DTITLE=Khanh Ly - U Thoi Em Ve
DYEAR=1994
DGENRE=
TTITLE0=Cuoi cung cho mot tinh yeu
TTITLE1=Con duong tinh ta di
TTITLE2=Nguoi tho san va dan chim nho
TTITLE3=Phuong yeu
TTITLE4=Bao tinh
TTITLE5=Nuoc mat mua thu
TTITLE6=Tinh que huong
TTITLE7=Ban long
TTITLE8=Mot lan cuoi
TTITLE9=Con quy lay Chua tren troi
EXTD=
EXTT0=
EXTT1=
EXTT2=
EXTT3=
EXTT4=
EXTT5=
EXTT6=
EXTT7=
EXTT8=
EXTT9=
PLAYORDER=
